<?xml version="1.0" standalone="no"?>
<!DOCTYPE svg PUBLIC "-//W3C//DTD SVG 20010904//EN"
 "http://www.w3.org/TR/2001/REC-SVG-20010904/DTD/svg10.dtd">
<svg version="1.0" xmlns="http://www.w3.org/2000/svg"
 width="261.000000pt" height="261.000000pt" viewBox="0 0 261.000000 261.000000"
 preserveAspectRatio="xMidYMid meet">
<metadata>
Created by potrace 1.16, written by Peter Selinger 2001-2019
</metadata>
<g transform="translate(0.000000,261.000000) scale(0.100000,-0.100000)"
fill="#001f68" stroke="none">
<path d="M220 2588 c-77 -30 -169 -123 -198 -201 l-22 -58 0 -1029 c0 -1016 0
-1030 21 -1085 26 -70 103 -155 171 -189 l52 -26 1065 0 c1030 0 1067 1 1108
20 61 27 135 101 166 164 l27 55 0 1061 0 1061 -27 55 c-35 72 -116 146 -188
173 -55 21 -68 21 -1088 20 -1025 0 -1032 0 -1087 -21z m1184 -319 c11 -6 169
-95 349 -197 211 -120 343 -201 368 -227 68 -68 70 -85 67 -552 l-3 -408 -27
-45 c-14 -25 -37 -55 -50 -67 -39 -37 -686 -401 -744 -419 -51 -17 -57 -17
-108 0 -64 19 -707 384 -749 424 -16 15 -39 45 -50 67 -21 39 -22 52 -25 454
-3 466 -2 477 67 547 39 39 660 401 738 430 41 15 129 12 167 -7z"/>
<path d="M970 1965 c-168 -96 -306 -178 -307 -182 -1 -5 144 -92 323 -196
l325 -187 324 187 c179 104 325 191 325 194 0 4 -139 86 -309 183 -235 134
-317 176 -342 176 -25 -1 -113 -46 -339 -175z"/>
<path d="M571 1303 c0 -242 4 -359 12 -383 11 -32 36 -49 327 -217 173 -100
318 -182 323 -182 4 -1 7 167 7 373 0 287 -3 376 -12 384 -24 19 -639 372
-649 372 -5 0 -9 -137 -8 -347z"/>
<path d="M1739 1482 c-157 -92 -302 -177 -322 -189 l-37 -22 0 -376 c0 -206 2
-375 4 -375 19 0 634 364 646 382 21 32 29 748 8 747 -7 0 -142 -76 -299 -167z"/>
</g>
</svg>
