<svg width="36" class="sc-bdfBwQ elElFI desktop-icon" height="36" viewBox="0 0 36 36" fill="none" xmlns="http://www.w3.org/2000/svg" color="text"><path d="M14.1024 8.74912C14.943 8.75016 15.7822 8.81704 16.6124 8.94913C19.4018 9.37887 22.0214 10.5609 24.1894 12.3681C26.2199 14.0477 27.7233 16.277 28.5194 18.7891C24.9437 20.0277 21.1939 20.6903 17.4104 20.7521C16.5694 20.7532 15.7289 20.7105 14.8924 20.6241C11.8716 20.2522 8.92049 19.4459 6.13036 18.2301C4.52146 17.5632 2.95721 16.7933 1.44736 15.9251C2.64067 13.7343 4.42822 11.9249 6.60435 10.7051C8.89173 9.41382 11.4757 8.73975 14.1024 8.74912ZM1.01636 16.8161C0.647953 18.1136 0.468773 19.4575 0.484356 20.8061C0.451885 22.4778 1.02917 24.1041 2.10835 25.3811C3.00453 26.2986 4.07612 27.0263 5.25936 27.5211C6.5123 28.0769 7.81162 28.5216 9.14235 28.8501C10.6844 29.2431 12.2508 29.5331 13.8314 29.7181C15.1064 29.8653 16.3889 29.938 17.6724 29.9361C20.2994 29.9361 23.8784 29.6141 26.0114 28.0791C27.3131 27.0744 28.2023 25.6282 28.5114 24.0131C28.8101 22.6734 28.9138 21.2975 28.8194 19.9281C29.4548 22.9718 28.9077 26.1432 27.2894 28.7981C26.4658 30.1418 25.4053 31.325 24.1594 32.2901C21.5251 34.3118 18.2929 35.3992 14.9724 35.3811C14.1318 35.3801 13.2925 35.3132 12.4624 35.1811C10.5475 34.883 8.70435 34.2327 7.02636 33.2631C5.44252 32.3521 4.04284 31.1532 2.89935 29.7281C1.78755 28.3534 0.96232 26.7699 0.472355 25.0711C-0.309086 22.3396 -0.116419 19.4213 1.01735 16.8161H1.01636Z" fill="#00E100"></path><path d="M13.074 27.6143C13.074 27.6143 7.37845 27.179 4.49328 24.971C1.60811 22.7629 4.25606 18.4951 4.25606 18.4951L13.074 27.6143ZM25.7702 26.2274C23.8704 28.169 17.9006 27.9215 17.9006 27.9215L25.88 20.4442C25.88 20.4442 27.6701 24.2847 25.7702 26.2274Z" fill="#00E100"></path><path d="M12.8342 2.05012C12.904 2.44617 12.8576 2.85397 12.7006 3.2242C12.5435 3.59443 12.2826 3.91124 11.9493 4.13633L14.2279 17.0349L12.5967 17.3231L10.3211 4.44122C9.95421 4.35746 9.61685 4.17577 9.34498 3.9155C9.0731 3.65524 8.87688 3.32612 8.7772 2.96319C8.67752 2.60026 8.67811 2.21709 8.7789 1.85447C8.87969 1.49185 9.07692 1.16333 9.34959 0.9039C9.62226 0.644465 9.96017 0.463817 10.3274 0.381177C10.6945 0.298537 11.0773 0.317002 11.4348 0.434605C11.7923 0.552207 12.1113 0.764547 12.3577 1.04903C12.6041 1.3335 12.7688 1.67947 12.8342 2.05012Z" fill="#00E100"></path><path d="M17.2068 17.5721L24.0358 5.74389C23.7883 5.40117 23.664 4.9848 23.6831 4.56248C23.7023 4.14016 23.8637 3.73675 24.1412 3.41783C24.4188 3.09891 24.796 2.88325 25.2116 2.80592C25.6272 2.72858 26.0568 2.79413 26.4304 2.99189C26.8041 3.18966 27.0998 3.508 27.2696 3.89517C27.4393 4.28234 27.4731 4.71555 27.3655 5.12436C27.2578 5.53317 27.015 5.89353 26.6765 6.14684C26.3381 6.40015 25.9239 6.53151 25.5013 6.51956L18.6418 18.4006L17.2068 17.5721Z" fill="#00E100"></path></svg>